<svg xmlns="http://www.w3.org/2000/svg" width="40" height="40" viewBox="0 0 40 40" fill="none"><path d="M23 9C25.1357 9 27.1445 9.83203 28.6572 11.3428C30.168 12.854 31 14.8628 31 17C31 19.1372 30.168 21.146 28.6572 22.6567L28.4854 22.8286L27.0711 21.4144L27.243 21.2425C28.3759 20.1097 29 18.603 29 17C29 15.397 28.376 13.8901 27.2432 12.7573C26.1094 11.624 24.6016 11 23 11C21.3984 11 19.8906 11.624 18.7568 12.7578C18.2656 13.2485 17.8623 13.8301 17.5586 14.4858C17.375 14.8818 16.96 15.1104 16.5215 15.0571L16.3887 15.0386C15.2305 14.8809 14.0205 15.3223 13.1719 16.1714C12.416 16.9268 12 17.9312 12 19C12 19.911 12.3181 20.765 12.8754 21.4678L11.4449 22.8984C10.5124 21.8122 10 20.4467 10 19C10 17.397 10.624 15.8901 11.7578 14.7568C12.9092 13.606 14.4268 12.9717 16.0771 13.001C16.4277 12.3896 16.8516 11.834 17.3428 11.3433C18.8555 9.83203 20.8643 9 23 9Z" fill="#ffffff"></path><path d="M13.5508 25.0356L19.2935 19.293H20.7075L26.3645 24.95L24.9504 26.364L21.0005 22.4141V32H19.0005V22.4141L14.9648 26.4497L13.5508 25.0356Z" fill="#ffffff"></path></svg>