<?xml version="1.0" standalone="no"?>
<!DOCTYPE svg PUBLIC "-//W3C//DTD SVG 20010904//EN"
 "http://www.w3.org/TR/2001/REC-SVG-20010904/DTD/svg10.dtd">
<svg version="1.0" xmlns="http://www.w3.org/2000/svg"
 width="680.000000pt" height="779.000000pt" viewBox="0 0 680.000000 779.000000"
 preserveAspectRatio="xMidYMid meet">

<g transform="translate(0.000000,779.000000) scale(0.100000,-0.100000)"
fill="#000000" stroke="none">
<path d="M380 7745 c-25 -14 -67 -36 -95 -49 -55 -26 -124 -93 -149 -143 -9
-18 -16 -52 -16 -76 0 -33 -8 -53 -32 -87 l-33 -44 -3 -2786 c-2 -1532 0
-2827 3 -2878 6 -86 10 -97 38 -129 17 -19 40 -55 52 -79 30 -62 177 -220 212
-227 15 -4 44 -16 63 -29 35 -22 109 -47 143 -48 15 0 118 -47 213 -98 14 -8
51 -16 82 -19 31 -3 64 -11 72 -18 8 -7 40 -25 70 -39 67 -32 146 -75 182
-100 15 -10 57 -22 93 -26 44 -5 79 -17 103 -33 20 -14 48 -28 62 -32 14 -4
41 -18 61 -31 21 -14 58 -27 89 -31 49 -6 253 -100 385 -178 22 -13 52 -24 66
-24 44 -2 128 -36 289 -119 92 -47 173 -82 200 -86 25 -4 99 -34 165 -67 75
-37 141 -63 176 -69 54 -8 171 -59 183 -79 7 -10 86 -35 147 -45 19 -3 51 -17
69 -31 33 -25 37 -25 231 -25 167 0 199 2 210 16 7 9 40 29 73 46 34 17 67 35
75 42 15 12 95 35 125 36 11 0 63 22 115 49 94 48 141 65 211 76 19 3 73 28
120 55 149 89 269 140 330 140 14 0 39 9 55 21 70 47 191 101 249 110 33 6 77
20 96 33 20 13 60 35 90 50 30 15 66 34 80 42 52 29 124 56 184 69 34 7 99 34
146 60 206 115 229 125 275 125 35 0 66 11 133 47 48 25 94 52 102 59 8 6 38
14 65 17 72 7 107 17 130 37 41 35 170 89 229 95 52 6 64 12 108 53 27 25 54
54 59 64 6 11 9 1187 9 3096 0 2466 -2 3085 -12 3109 -14 32 -111 123 -132
123 -7 0 -30 11 -51 25 -86 59 144 55 -3135 55 l-3015 -1 -45 -24z m6070 -104
c19 -8 51 -27 70 -41 19 -15 56 -37 83 -49 26 -13 52 -31 57 -41 7 -12 10
-1073 10 -3020 0 -2801 -1 -3004 -17 -3031 -9 -15 -31 -34 -47 -40 -17 -7 -44
-22 -61 -33 -52 -36 -90 -57 -140 -76 -71 -27 -114 -44 -143 -56 -18 -8 -37
-14 -43 -14 -6 0 -25 -11 -42 -24 -18 -13 -48 -27 -67 -31 -19 -4 -55 -18 -80
-30 -25 -12 -64 -26 -87 -30 -23 -3 -46 -12 -52 -18 -15 -19 -180 -94 -246
-112 -68 -19 -81 -24 -146 -54 -25 -11 -50 -21 -55 -21 -8 0 -94 -39 -187 -86
-16 -8 -33 -14 -39 -14 -5 0 -24 -6 -41 -14 -18 -7 -52 -21 -77 -31 -25 -9
-72 -30 -105 -45 -52 -25 -87 -39 -170 -70 -46 -17 -134 -55 -191 -81 -34 -16
-67 -29 -73 -29 -6 0 -20 -5 -31 -10 -11 -6 -29 -14 -40 -20 -11 -5 -25 -10
-33 -10 -7 0 -29 -9 -50 -20 -20 -11 -45 -20 -54 -20 -10 0 -45 -13 -78 -29
-74 -35 -182 -81 -225 -96 -3 -1 -18 -5 -35 -10 -16 -4 -43 -17 -58 -27 -15
-11 -44 -24 -65 -30 -20 -5 -64 -22 -97 -38 -96 -46 -157 -73 -195 -87 -40
-14 -241 -18 -268 -4 -25 12 -210 97 -254 115 -20 9 -40 16 -44 16 -5 0 -32
11 -61 25 -29 14 -77 36 -105 50 -29 13 -68 28 -86 31 -18 4 -35 11 -38 15 -3
5 -13 9 -23 9 -10 0 -24 6 -30 14 -7 8 -27 18 -44 22 -17 3 -38 10 -47 14 -16
8 -110 47 -145 60 -11 4 -52 22 -91 39 -39 17 -76 31 -82 31 -6 0 -42 14 -79
32 -38 17 -77 34 -88 38 -11 4 -44 18 -74 31 -30 13 -58 24 -62 24 -4 0 -11 3
-15 8 -4 4 -17 7 -29 7 -13 0 -28 7 -35 15 -7 8 -21 15 -31 15 -10 0 -20 4
-23 9 -4 5 -24 12 -45 16 -22 4 -45 13 -52 21 -6 8 -18 14 -25 14 -8 0 -22 4
-32 9 -9 5 -42 19 -72 31 -30 13 -73 30 -95 40 -22 10 -65 28 -95 40 -30 13
-82 35 -115 51 -33 15 -85 35 -115 44 -30 10 -77 28 -105 41 -75 34 -122 54
-132 54 -4 0 -35 13 -68 29 -84 41 -131 61 -144 61 -6 0 -26 9 -46 20 -19 11
-35 17 -35 14 0 -3 -30 11 -67 30 -37 20 -71 36 -76 36 -10 0 -129 54 -157 71
-8 5 -24 13 -35 18 -27 12 -108 99 -126 135 -12 25 -14 419 -14 2927 l0 2898
28 28 c15 16 27 34 27 41 0 6 26 40 59 74 44 48 77 71 132 97 41 18 81 37 89
42 8 4 1336 7 2950 6 2537 -2 2940 -4 2970 -16z"/>
<path d="M5600 5900 c0 -5 9 -10 20 -10 11 0 20 5 20 10 0 6 -9 10 -20 10 -11
0 -20 -4 -20 -10z"/>
<path d="M5355 2530 c3 -5 8 -10 11 -10 2 0 4 5 4 10 0 6 -5 10 -11 10 -5 0
-7 -4 -4 -10z"/>
</g>
</svg>
